<?xml version="1.0" encoding="utf-8"?>
<!-- Generator: Adobe Illustrator 24.0.1, SVG Export Plug-In . SVG Version: 6.00 Build 0)  -->
<svg version="1.1" id="Layer_1" xmlns="http://www.w3.org/2000/svg" xmlns:xlink="http://www.w3.org/1999/xlink" x="0px" y="0px"
	 viewBox="0 0 1280 746" style="enable-background:new 0 0 1280 746;" xml:space="preserve">
<style type="text/css">
	.st0{fill:url(#SVGID_1_);}
	.st1{fill:url(#SVGID_2_);}
	.st2{fill:url(#SVGID_3_);}
	.st3{opacity:0.1;}
	.st4{fill:url(#SVGID_4_);}
	.st5{fill:none;}
</style>
<g>
	<linearGradient id="SVGID_1_" gradientUnits="userSpaceOnUse" x1="353.7274" y1="767.0806" x2="678.7138" y2="55.765">
		<stop  offset="2.444090e-07" style="stop-color:#3738EB"/>
		<stop  offset="1" style="stop-color:#3CBBEF"/>
	</linearGradient>
	<path class="st0" d="M0,482c0,0,91,276,317,264s195-223,447-257s359-3,516-208c0-199,0-281,0-281H0"/>
</g>
<linearGradient id="SVGID_2_" gradientUnits="userSpaceOnUse" x1="573.8989" y1="555.3511" x2="569.9243" y2="631.7842">
	<stop  offset="3.067093e-07" style="stop-color:#FFB696"/>
	<stop  offset="1" style="stop-color:#FF7A95"/>
</linearGradient>
<path class="st1" d="M617,634c-9.54,11.92-43,0-79-22s-2-43,6-47s37-23,57,0S625,624,617,634z"/>
<path class="st3" d="M623,129c0,145.67,70.63,274.84,179.51,355.14c224.85-26.53,328.73-8.9,477.49-203.14c0-199,0-281,0-281H642.18
	C629.71,40.8,623,84.12,623,129z"/>
</svg>
